<svg version="1.1" baseProfile="tiny" id="Layer_1" xmlns="http://www.w3.org/2000/svg" xmlns:xlink="http://www.w3.org/1999/xlink"
	 x="0px" y="0px" width="400px" height="88px" viewBox="0 0 2000 440" xml:space="preserve">
<path fill-rule="evenodd" fill="#FFFFFF" d="M236.795,242.076c0,15.095-3.616,28.739-10.847,40.999
	c-7.267,12.301-17.032,21.36-29.333,27.245c-7.341,3.433-16.1,5.706-26.314,6.784c-5.59,0.599-14.795,0.858-27.619,0.858H86.102
	c4.959-3.465,8.052-7.976,9.282-13.527c0.596-2.611,0.895-8.163,0.895-16.589v-40.403H82.934v-19.118h13.344v-31.123
	c0-11.332-0.932-18.823-2.721-22.365c-1.603-3.28-4.1-6.15-7.456-8.648h53.747c18.935,0,32.576,0.895,41.001,2.611
	c8.386,1.75,16.623,5.365,24.637,10.847c9.802,6.747,17.481,15.616,23.035,26.613C234.039,217.253,236.795,229.22,236.795,242.076
	L236.795,242.076z M191.174,242.86c0-16.328-3.393-29.336-10.101-39.099c-6.747-9.768-15.878-14.649-27.359-14.649
	c-3.727,0-8.35,0.596-13.866,1.75v37.463h30.676v19.118h-30.676v45.102c3.766,1.378,8.125,2.048,13.084,2.048
	c12.896,0,22.475-4.732,28.775-14.239C188.006,270.851,191.174,258.366,191.174,242.86L191.174,242.86z M425.582,241.556
	c0,23.295-8.201,42.378-24.674,57.25c-16.438,14.908-37.421,22.328-62.878,22.328c-25.272,0-45.884-7.305-61.834-21.918
	c-15.916-14.648-23.893-33.545-23.893-56.692c0-23.52,8.312-42.641,24.935-57.325c16.66-14.723,38.168-22.067,64.593-22.067
	c25.124,0,45.361,7.232,60.718,21.622C417.903,199.176,425.582,218.11,425.582,241.556L425.582,241.556z M379.96,249.419
	c0-19.082-4.361-34.702-13.121-46.852c-7.491-10.695-17.592-16.063-30.228-16.063c-11.592,0-20.91,4.733-28.029,14.163
	c-7.083,9.394-10.623,21.841-10.623,37.271c0,9.915,1.453,19.232,4.361,27.957c2.908,8.721,6.671,15.54,11.332,20.422
	c7.379,7.643,16.474,11.446,27.32,11.446c10.472,0,19.38-3.951,26.762-11.89C375.86,277.151,379.96,264.999,379.96,249.419
	L379.96,249.419z M383.538,145.355l-14.201,8.05l-30.787-12.337l-30.563,12.337l-13.752-8.05L338.55,117.4L383.538,145.355
	L383.538,145.355z M596.364,166.188c-4.064,4.102-6.896,8.35-8.424,12.824c-1.527,4.511-2.272,10.471-2.272,17.965v125.609
	c-23.519-4.323-43.759-17.296-60.718-38.99l-48.156-61.722v65.302c0,7.565,0.745,13.568,2.236,17.965
	c1.491,4.397,4.286,8.688,8.35,12.821h-45.734c7.044-7.191,10.586-17.442,10.586-30.786v-85.058c0-8.645-0.896-15.318-2.685-19.978
	c-1.789-4.656-5.478-9.988-11.07-15.953h48.903l74.06,94.674v-63.885c0-7.417-0.634-13.01-1.865-16.812
	c-1.378-4.806-4.322-9.468-8.758-13.978H596.364L596.364,166.188z M757.419,313.829c-17.442,4.882-34.703,7.305-51.736,7.305
	c-28.475,0-51.21-7.085-68.208-21.322c-16.996-14.237-25.494-33.209-25.494-56.951c0-23.446,8.61-42.603,25.83-57.438
	c17.22-14.872,39.434-22.291,66.682-22.291c13.975,0,26.834,1.53,38.648,4.589v31.904c-11.217-8.09-24.188-12.152-38.874-12.152
	c-14.498,0-25.643,4.286-33.472,12.786c-7.827,8.534-11.74,20.538-11.74,36.04c0,19.087,4.137,34.107,12.449,45.064
	c8.275,10.92,19.754,16.401,34.402,16.401c3.132,0,6.187-0.45,9.17-1.419V259.67c0-4.734-0.634-8.537-1.939-11.406
	c-1.266-2.87-3.691-5.778-7.231-8.683h51.512V313.829L757.419,313.829z M831.107,202.567c0,5.813-1.976,10.66-6,14.575
	c-3.991,3.876-9.06,5.851-15.17,5.851c-6.262,0-11.631-2.161-16.139-6.408c-4.547-4.248-6.784-9.359-6.784-15.32
	c0-10.364,6-21.06,18.001-32.131c4.51-3.986,9.208-6.003,14.091-6.003c2.647,0,6.484,0.303,11.591,0.896
	c-9.616,6.336-16.996,13.307-22.178,20.949c0.821-0.15,1.9-0.224,3.28-0.224c5.666,0,10.325,1.676,13.903,4.993
	C829.318,193.026,831.107,197.313,831.107,202.567L831.107,202.567z M932.415,283.038c0-9.914-3.877-17.892-11.592-24.038
	c-5.591-4.438-14.463-8.462-26.613-12.117c-8.237-2.158-12.971-3.615-14.2-4.359c-3.578-1.527-5.368-3.802-5.368-6.894
	c0-5.37,5.293-8.054,15.841-8.054c10.323,0,20.016,3.204,29.035,9.616v-24.15c-12.933-2.908-25.196-4.361-36.788-4.361
	c-15.208,0-27.247,3.132-36.154,9.43c-8.872,6.299-13.306,14.833-13.306,25.605c0,8.948,2.907,16.139,8.719,21.582
	c5.815,5.405,15.658,10.362,29.483,14.798c7.083,2.086,11.78,3.952,14.164,5.515c2.348,1.566,3.541,3.616,3.541,6.148
	c0,6.786-6.075,10.179-18.227,10.179c-12.113,0-25.38-4.213-39.881-12.673l5.143,26.2c14.65,3.804,28.068,5.669,40.293,5.669
	c17.183,0,30.787-3.431,40.851-10.288C927.382,303.947,932.415,294.668,932.415,283.038L932.415,283.038z M1180.982,271.672
	c0,13.902-5.253,25.345-15.728,34.292c-9.465,8.011-22.699,11.999-39.732,11.999h-72.645c4.959-3.614,8.052-8.125,9.28-13.527
	c0.601-2.461,0.895-8.015,0.895-16.589v-91.393c0-10.846-0.895-18.075-2.719-21.617c-1.529-3.28-4.023-6.15-7.456-8.648h73.838
	c13.38,0,24.191,3.354,32.428,10.064c8.234,6.673,12.338,15.395,12.338,26.09c0,14.203-8.313,24.042-24.898,29.596
	c10.846,2.05,19.307,6.522,25.344,13.493C1177.966,252.364,1180.982,261.119,1180.982,271.672L1180.982,271.672z M1129.771,205.514
	c0-5.034-1.566-9.208-4.695-12.525c-3.129-3.28-7.118-4.957-12.001-4.957c-2.198,0-4.659,0.45-7.417,1.304v35.484
	c1.643,0.521,3.203,0.784,4.656,0.784c5.782,0,10.438-1.902,14.055-5.666C1127.981,216.137,1129.771,211.326,1129.771,205.514
	L1129.771,205.514z M1138.384,269.511c0-16.252-8.946-24.38-26.836-24.38c-2.276,0-4.248,0.039-5.891,0.114v48.604
	c3.242,1.827,6.969,2.722,11.105,2.722c6.785,0,12.08-2.386,15.918-7.196C1136.479,284.567,1138.384,277.933,1138.384,269.511
	L1138.384,269.511z M1322.583,300.294l-9.691,19.758c-3.578,0.744-6.445,1.082-8.646,1.082c-10.623,0-19.307-1.94-26.093-5.891
	c-11.44-6.189-17.145-16.81-17.145-31.868v-15.843c-2.271,1.68-5.55,3.283-9.952,4.811c-8.424,2.756-12.634,7.417-12.634,13.975
	c0,3.989,1.415,7.42,4.286,10.217c2.871,2.792,6.411,4.211,10.547,4.211c1.682,0,3.504-0.15,5.443-0.451l-10.362,19.758
	c-4.284,0.744-8.165,1.082-11.555,1.082c-12.522,0-22.476-2.909-29.892-8.76c-7.381-5.89-11.07-13.645-11.07-23.336
	c0-13.603,6.82-23.404,20.424-29.368c4.434-1.827,13.644-4.474,27.619-7.977c11.146-2.46,16.699-6.19,16.699-11.145
	c0-2.982-1.377-5.369-4.136-7.193c-2.757-1.827-6.265-2.724-10.476-2.724c-9.988,0-20.201,2.536-30.713,7.644l11.033-26.205
	c10.587-2.271,20.721-3.39,30.488-3.39c16.737,0,28.885,4.176,36.452,12.562c5.778,6.41,8.647,16.065,8.647,29.033v24.151
	c0,9.879,1.455,16.626,4.361,20.241C1309.128,298.285,1314.571,300.149,1322.583,300.294L1322.583,300.294z M1299.437,182.89
	l-53.822,19.678l-13.23-7.753l55.609-30.787L1299.437,182.89L1299.437,182.89z M1455.496,317.963h-58.293
	c3.911-3.839,6.263-7.191,7.046-10.102c0.748-2.868,1.116-9.502,1.116-19.903v-37.234c0-12.075-4.921-18.151-14.834-18.151
	c-9.469,0-14.202,6.076-14.202,18.151v37.234c0,10.251,0.412,16.884,1.195,19.867c0.816,2.983,3.054,6.372,6.782,10.138h-58.11
	c3.951-3.839,6.338-7.229,7.16-10.178c0.854-2.981,1.267-9.576,1.267-19.827v-46.402c0-10.214-0.374-16.736-1.155-19.568
	c-0.746-2.832-3.094-6.3-7.044-10.361h32.763c4.581,0,9.614-1.154,15.057-3.506v12.676c8.905-8.092,19.195-12.115,30.936-12.115
	c12.563,0,22.736,3.316,30.453,9.916c4.359,3.727,7.377,7.973,9.02,12.783c1.639,4.808,2.461,11.592,2.461,20.313v36.265
	c0,10.103,0.372,16.735,1.191,19.867C1449.085,310.955,1451.51,314.349,1455.496,317.963L1455.496,317.963z M1596.687,317.963
	h-58.07c3.838-3.766,6.148-7.117,6.932-10.026c0.746-2.905,1.118-9.577,1.118-19.979v-34.625c0-13.828-4.733-20.761-14.163-20.761
	c-7.008,0-11.371,3.058-13.121,9.207c-0.598,2.012-0.855,6.522-0.855,13.531v32.647c0,10.251,0.37,16.846,1.189,19.827
	c0.785,2.949,3.058,6.339,6.748,10.178h-58.07c3.914-3.839,6.299-7.229,7.158-10.178c0.818-2.981,1.229-9.576,1.229-19.827v-92.062
	c0-10.175-0.373-16.699-1.117-19.531c-0.784-2.831-3.133-6.226-7.047-10.177h34.701c4.809,0,9.879-1.117,15.209-3.39v55.798
	c7.898-6.6,17.965-9.916,30.115-9.916c18.488,0,30.677,6.559,36.601,19.645c2.161,4.733,3.243,12.447,3.243,23.145v36.488
	c0,10.251,0.41,16.846,1.23,19.827C1590.499,310.734,1592.847,314.124,1596.687,317.963L1596.687,317.963z M1854.499,317.963
	h-61.798c5.069-5.664,7.643-11.404,7.643-17.218c0-1.529-0.298-4.883-0.896-10.065l-8.387-70.742l-31.122,100.784
	c-11.517-5.625-19.345-10.547-23.558-14.871c-4.176-4.289-8.236-11.555-12.149-21.842l-25.457-64.071l-7.083,67.909
	c-0.594,5.667-0.895,9.843-0.895,12.447c0,7.047,3.502,12.938,10.474,17.669h-46.813c3.914-3.766,6.635-7.678,8.163-11.663
	c1.452-3.433,2.722-9.582,3.725-18.453l11.036-88.558c0.631-4.956,0.967-8.985,0.967-12.114c0-8.015-3.094-15.021-9.281-20.986
	h49.91l36.041,88.895l27.733-88.895h55.907c-5.818,5.743-8.722,10.998-8.722,15.73c0,2.759,0.485,8.571,1.527,17.37l10.362,85.949
	C1843.579,300.669,1847.789,311.589,1854.499,317.963L1854.499,317.963z M1922.524,317.963h-58.334
	c3.875-3.839,6.186-7.229,7.008-10.178c0.781-2.981,1.193-9.576,1.193-19.827v-46.402c0-10.214-0.376-16.736-1.082-19.568
	c-0.746-2.832-3.018-6.3-6.897-10.361h34.742c4.581,0,9.577-1.154,14.944-3.506v79.838c0,10.251,0.447,16.846,1.305,19.827
	C1916.298,310.734,1918.646,314.124,1922.524,317.963L1922.524,317.963z M1920.997,193.698l-55.576-30.678l-11.48,19.011
	l53.599,19.53L1920.997,193.698z"/>
</svg>
